<svg width="40" height="40" viewBox="0 0 40 40" fill="none" xmlns="http://www.w3.org/2000/svg">
<circle cx="20" cy="20" r="20" fill="#434343"/>
<path d="M20.4925 11C14.6842 11 10 14.7473 10 19.2965C10 22.2494 11.9486 24.8351 14.8715 26.3115L13.8822 30.0064C13.8636 30.0618 13.8607 30.1212 13.8739 30.1781C13.8872 30.2351 13.916 30.2872 13.9572 30.3286C14.0172 30.3816 14.0945 30.4109 14.1745 30.4111C14.2409 30.4057 14.3039 30.3795 14.3544 30.3361L18.6113 27.4657C19.2397 27.5525 19.8732 27.5975 20.5075 27.6006C26.3084 27.6006 31 23.8533 31 19.2965C31 14.7398 26.2934 11 20.4925 11Z" fill="#392020"/>
<path d="M13.6721 17.9849H12.5254C12.3832 17.9891 12.2429 17.9527 12.1207 17.88C12.0664 17.846 12.0197 17.8011 11.9836 17.7483C11.9475 17.6954 11.9227 17.6356 11.9108 17.5727C11.9072 17.5328 11.9072 17.4927 11.9108 17.4528C11.9072 17.3782 11.9217 17.3038 11.9531 17.2359C11.9844 17.1681 12.0316 17.1088 12.0907 17.0631C12.2213 16.9685 12.379 16.9185 12.5404 16.9207H15.9954C16.1386 16.9156 16.28 16.9549 16.4001 17.0331C16.4556 17.0656 16.5033 17.1101 16.5396 17.1632C16.5759 17.2163 16.5999 17.2768 16.61 17.3404C16.6136 17.3778 16.6136 17.4155 16.61 17.4528C16.6135 17.5286 16.599 17.604 16.5678 17.673C16.5365 17.7421 16.4893 17.8027 16.4301 17.85C16.3026 17.9445 16.1464 17.9922 15.9879 17.9849H14.8787V21.9271C14.8832 22.0111 14.8702 22.0951 14.8405 22.1738C14.8109 22.2525 14.7651 22.3242 14.7063 22.3843C14.6499 22.4418 14.5821 22.4868 14.5072 22.5165C14.4323 22.5462 14.3521 22.5598 14.2716 22.5566C14.1309 22.5607 13.9931 22.5157 13.8819 22.4293C13.776 22.3449 13.7042 22.2251 13.6795 22.092C13.6721 22.0373 13.6721 21.9818 13.6795 21.9271L13.6721 17.9849Z" fill="white"/>
<path d="M16.9408 17.213C16.9737 17.0897 17.0512 16.9829 17.1581 16.9132C17.2721 16.8486 17.402 16.8174 17.5329 16.8233H17.8177C17.9565 16.8183 18.0941 16.852 18.2149 16.9207C18.3429 17.0068 18.4339 17.1379 18.4697 17.2879L19.9686 21.5224C20.0075 21.6329 20.04 21.7456 20.0661 21.8597C20.0686 21.9072 20.0686 21.9547 20.0661 22.0021C20.0686 22.0751 20.0551 22.1479 20.0267 22.2152C19.9982 22.2825 19.9554 22.3428 19.9012 22.3918C19.8487 22.4456 19.7856 22.4881 19.716 22.5164C19.6464 22.5448 19.5716 22.5585 19.4965 22.5567C19.3809 22.5682 19.2648 22.5405 19.1669 22.4779C19.069 22.4154 18.995 22.3217 18.9568 22.212L18.6421 21.2901H16.671L16.3562 22.212C16.319 22.3238 16.2441 22.4194 16.1443 22.4822C16.0446 22.5451 15.9261 22.5714 15.8091 22.5567C15.6824 22.56 15.5582 22.5204 15.4568 22.4442C15.3581 22.3657 15.2914 22.2538 15.2695 22.1295C15.2655 22.0872 15.2655 22.0445 15.2695 22.0021C15.2566 21.9277 15.2566 21.8517 15.2695 21.7773C15.2695 21.6949 15.3219 21.6049 15.3519 21.5224L16.9408 17.213ZM17.6903 18.1948L16.9783 20.4432H18.3947L17.6903 18.1948Z" fill="white"/>
<path d="M20.2377 17.4529C20.23 17.2847 20.2893 17.1204 20.4025 16.9958C20.4601 16.9377 20.5292 16.8923 20.6053 16.8627C20.6815 16.833 20.7631 16.8195 20.8447 16.8233C20.9851 16.8217 21.1221 16.8665 21.2344 16.9508C21.3385 17.0387 21.4077 17.161 21.4293 17.2955C21.4367 17.3477 21.4367 17.4007 21.4293 17.4529V21.3951H23.4903C23.6332 21.3933 23.7736 21.4322 23.895 21.5075C23.9496 21.5411 23.9965 21.5859 24.0326 21.6388C24.0688 21.6918 24.0934 21.7517 24.1049 21.8148C24.1049 21.8148 24.1049 21.8897 24.1049 21.9272C24.1084 22.0019 24.094 22.0762 24.0626 22.144C24.0313 22.2119 23.9841 22.2712 23.925 22.317C23.7944 22.4116 23.6367 22.4615 23.4753 22.4593H20.9421C20.7808 22.4697 20.6204 22.4277 20.485 22.3395C20.3638 22.2489 20.2831 22.1143 20.2601 21.9647C20.2546 21.8824 20.2546 21.7997 20.2601 21.7173L20.2377 17.4529Z" fill="white"/>
<path d="M24.2399 17.453C24.2354 17.2853 24.2943 17.1221 24.4048 16.9958C24.5171 16.8938 24.6612 16.8335 24.8127 16.8253C24.9643 16.8171 25.114 16.8615 25.2367 16.9508C25.3431 17.038 25.4148 17.1602 25.4391 17.2956C25.4428 17.348 25.4428 17.4006 25.4391 17.453V19.2892L27.3352 17.1007C27.4083 17.026 27.4859 16.956 27.5675 16.8909C27.6445 16.8451 27.7328 16.8216 27.8224 16.8234C27.9533 16.8227 28.0814 16.8619 28.1896 16.9358C28.2405 16.9701 28.2841 17.0144 28.3175 17.0659C28.351 17.1174 28.3738 17.1751 28.3845 17.2356C28.3875 17.2505 28.3875 17.2658 28.3845 17.2806C28.3808 17.2979 28.3808 17.3158 28.3845 17.3331C28.3842 17.4119 28.3635 17.4894 28.3245 17.5579C28.2847 17.6305 28.237 17.6983 28.1821 17.7602L26.938 19.1243L28.4369 21.4476V21.5226C28.5147 21.63 28.5754 21.7489 28.6168 21.8749V21.9123C28.6255 21.9991 28.6129 22.0868 28.5803 22.1677C28.5477 22.2487 28.4959 22.3204 28.4294 22.377C28.3044 22.4714 28.1514 22.5216 27.9947 22.5194C27.8906 22.5237 27.7872 22.5004 27.6949 22.4519C27.5951 22.3849 27.5129 22.295 27.4551 22.1896L26.0611 19.9412L25.3941 20.6382V21.8898C25.3986 22.0575 25.3397 22.2207 25.2292 22.3469C25.17 22.4048 25.0995 22.4501 25.0222 22.4797C24.9449 22.5093 24.8623 22.5229 24.7795 22.5194C24.6412 22.5223 24.5062 22.4772 24.3973 22.392C24.2914 22.3076 24.2196 22.1879 24.1949 22.0547C24.1875 22 24.1875 21.9445 24.1949 21.8898L24.2399 17.453Z" fill="white"/>
</svg>
