<svg width="41" height="40" viewBox="0 0 41 40" fill="none" xmlns="http://www.w3.org/2000/svg">
<rect x="0.5" width="40" height="40" rx="8" fill="#EEEEFA"/>
<path d="M15.5 17.9977H17.5C17.7652 17.9977 18.0196 17.8924 18.2071 17.7049C18.3946 17.5174 18.5 17.2631 18.5 16.998C18.5 16.7328 18.3946 16.4786 18.2071 16.2911C18.0196 16.1036 17.7652 15.9983 17.5 15.9983H15.5C15.2348 15.9983 14.9804 16.1036 14.7929 16.2911C14.6054 16.4786 14.5 16.7328 14.5 16.998C14.5 17.2631 14.6054 17.5174 14.7929 17.7049C14.9804 17.8924 15.2348 17.9977 15.5 17.9977ZM29.5 11.9994H21.5V10.9997C21.5 10.7346 21.3946 10.4803 21.2071 10.2928C21.0196 10.1053 20.7652 10 20.5 10C20.2348 10 19.9804 10.1053 19.7929 10.2928C19.6054 10.4803 19.5 10.7346 19.5 10.9997V11.9994H11.5C11.2348 11.9994 10.9804 12.1047 10.7929 12.2922C10.6054 12.4797 10.5 12.734 10.5 12.9991V22.9962C10.5 23.7917 10.8161 24.5545 11.3787 25.1169C11.9413 25.6794 12.7044 25.9954 13.5 25.9954H18.09L15.79 28.2847C15.6963 28.3776 15.6219 28.4882 15.5711 28.61C15.5203 28.7319 15.4942 28.8625 15.4942 28.9945C15.4942 29.1265 15.5203 29.2571 15.5711 29.379C15.6219 29.5008 15.6963 29.6113 15.79 29.7043C15.883 29.798 15.9936 29.8724 16.1154 29.9231C16.2373 29.9739 16.368 30 16.5 30C16.632 30 16.7627 29.9739 16.8846 29.9231C17.0064 29.8724 17.117 29.798 17.21 29.7043L19.5 27.405V28.9945C19.5 29.2596 19.6054 29.5139 19.7929 29.7014C19.9804 29.8889 20.2348 29.9942 20.5 29.9942C20.7652 29.9942 21.0196 29.8889 21.2071 29.7014C21.3946 29.5139 21.5 29.2596 21.5 28.9945V27.405L23.79 29.7043C23.883 29.798 23.9936 29.8724 24.1154 29.9231C24.2373 29.9739 24.368 30 24.5 30C24.632 30 24.7627 29.9739 24.8846 29.9231C25.0064 29.8724 25.117 29.798 25.21 29.7043C25.3037 29.6113 25.3781 29.5008 25.4289 29.379C25.4797 29.2571 25.5058 29.1265 25.5058 28.9945C25.5058 28.8625 25.4797 28.7319 25.4289 28.61C25.3781 28.4882 25.3037 28.3776 25.21 28.2847L22.91 25.9954H27.5C28.2956 25.9954 29.0587 25.6794 29.6213 25.1169C30.1839 24.5545 30.5 23.7917 30.5 22.9962V12.9991C30.5 12.734 30.3946 12.4797 30.2071 12.2922C30.0196 12.1047 29.7652 11.9994 29.5 11.9994ZM28.5 22.9962C28.5 23.2614 28.3946 23.5157 28.2071 23.7031C28.0196 23.8906 27.7652 23.9959 27.5 23.9959H13.5C13.2348 23.9959 12.9804 23.8906 12.7929 23.7031C12.6054 23.5157 12.5 23.2614 12.5 22.9962V13.9988H28.5V22.9962ZM15.5 21.9965H21.5C21.7652 21.9965 22.0196 21.8912 22.2071 21.7037C22.3946 21.5162 22.5 21.262 22.5 20.9968C22.5 20.7317 22.3946 20.4774 22.2071 20.2899C22.0196 20.1024 21.7652 19.9971 21.5 19.9971H15.5C15.2348 19.9971 14.9804 20.1024 14.7929 20.2899C14.6054 20.4774 14.5 20.7317 14.5 20.9968C14.5 21.262 14.6054 21.5162 14.7929 21.7037C14.9804 21.8912 15.2348 21.9965 15.5 21.9965Z" fill="#585858"/>
</svg>
