<svg width="16" height="16" viewBox="0 0 16 16" fill="none" xmlns="http://www.w3.org/2000/svg">
<path d="M13.0313 11.9688C13.1012 12.0385 13.1567 12.1213 13.1945 12.2125C13.2324 12.3036 13.2519 12.4014 13.2519 12.5001C13.2519 12.5988 13.2324 12.6965 13.1945 12.7877C13.1567 12.8789 13.1012 12.9617 13.0313 13.0313C12.8897 13.171 12.6989 13.2494 12.5 13.2494C12.3011 13.2494 12.1103 13.171 11.9688 13.0313L8.00001 9.06258L4.03126 13.0313C3.88973 13.171 3.69887 13.2494 3.50001 13.2494C3.30115 13.2494 3.11029 13.171 2.96876 13.0313C2.89884 12.9617 2.84336 12.8789 2.80551 12.7877C2.76765 12.6965 2.74817 12.5988 2.74817 12.5001C2.74817 12.4014 2.76765 12.3036 2.80551 12.2125C2.84336 12.1213 2.89884 12.0385 2.96876 11.9688L6.93751 8.00008L2.96876 4.03133C2.82786 3.89043 2.74871 3.69934 2.74871 3.50008C2.74871 3.40142 2.76814 3.30372 2.8059 3.21257C2.84366 3.12142 2.899 3.0386 2.96876 2.96883C3.03853 2.89907 3.12135 2.84373 3.2125 2.80597C3.30365 2.76821 3.40135 2.74878 3.50001 2.74878C3.69927 2.74878 3.89036 2.82793 4.03126 2.96883L8.00001 6.93758L11.9688 2.96883C12.1097 2.82793 12.3008 2.74878 12.5 2.74878C12.6993 2.74878 12.8904 2.82793 13.0313 2.96883C13.1722 3.10973 13.2513 3.30082 13.2513 3.50008C13.2513 3.69934 13.1722 3.89043 13.0313 4.03133L9.06251 8.00008L13.0313 11.9688Z" fill="#585858"/>
</svg>
