<svg width="30" height="30" viewBox="0 0 30 30" fill="none" xmlns="http://www.w3.org/2000/svg">
<rect width="30" height="30" rx="9" fill="#FEE500"/>
<path d="M15.1804 7.5C10.5136 7.5 6.75 10.5108 6.75 14.166C6.75 16.5385 8.31564 18.616 10.6641 19.8023L9.86924 22.771C9.85425 22.8155 9.85195 22.8633 9.86258 22.909C9.87322 22.9547 9.89637 22.9966 9.92945 23.0299C9.97769 23.0724 10.0398 23.096 10.1041 23.0961C10.1574 23.0919 10.208 23.0708 10.2486 23.0359L13.6689 20.7296C14.1738 20.7993 14.6828 20.8355 15.1924 20.838C19.8532 20.838 23.6228 17.8272 23.6228 14.166C23.6228 10.5048 19.8412 7.5 15.1804 7.5Z" fill="#392020"/>
<path d="M9.70037 13.1122H8.77905C8.66486 13.1155 8.55208 13.0862 8.45388 13.0279C8.41028 13.0005 8.3728 12.9645 8.34379 12.922C8.31477 12.8795 8.29485 12.8315 8.28528 12.7809C8.28235 12.7489 8.28235 12.7167 8.28528 12.6846C8.28241 12.6247 8.29405 12.5649 8.31921 12.5104C8.34437 12.4559 8.3823 12.4082 8.42979 12.3715C8.53478 12.2955 8.66149 12.2553 8.7911 12.2571H11.5671C11.6822 12.253 11.7957 12.2846 11.8923 12.3474C11.9369 12.3735 11.9752 12.4092 12.0043 12.4519C12.0335 12.4946 12.0528 12.5432 12.0609 12.5943C12.0638 12.6243 12.0638 12.6546 12.0609 12.6846C12.0637 12.7455 12.0521 12.8061 12.027 12.8616C12.0019 12.9171 11.9639 12.9657 11.9164 13.0037C11.8139 13.0797 11.6884 13.118 11.5611 13.1122H10.6699V16.2796C10.6735 16.3471 10.663 16.4145 10.6392 16.4778C10.6154 16.541 10.5786 16.5986 10.5314 16.6469C10.486 16.6931 10.4315 16.7293 10.3714 16.7531C10.3112 16.777 10.2468 16.7879 10.1821 16.7854C10.069 16.7886 9.95832 16.7525 9.86898 16.6831C9.78392 16.6153 9.72619 16.519 9.7064 16.412C9.70045 16.3681 9.70045 16.3235 9.7064 16.2796L9.70037 13.1122Z" fill="#FEE500"/>
<path d="M12.3267 12.4919C12.3532 12.3928 12.4154 12.307 12.5013 12.251C12.5929 12.1991 12.6972 12.1741 12.8024 12.1788H13.0312C13.1428 12.1748 13.2533 12.2019 13.3504 12.2571C13.4532 12.3262 13.5263 12.4316 13.5551 12.5521L14.7594 15.9544C14.7907 16.0432 14.8168 16.1337 14.8377 16.2254C14.8398 16.2635 14.8398 16.3017 14.8377 16.3398C14.8398 16.3985 14.829 16.4569 14.8061 16.511C14.7832 16.5651 14.7488 16.6135 14.7052 16.6529C14.663 16.6962 14.6124 16.7303 14.5565 16.753C14.5005 16.7758 14.4405 16.7868 14.3801 16.7854C14.2872 16.7946 14.1939 16.7724 14.1153 16.7221C14.0366 16.6719 13.9772 16.5966 13.9465 16.5084L13.6936 15.7678H12.1099L11.857 16.5084C11.8271 16.5983 11.7669 16.675 11.6867 16.7256C11.6066 16.7761 11.5114 16.7972 11.4174 16.7854C11.3156 16.7881 11.2158 16.7562 11.1344 16.6951C11.055 16.6319 11.0015 16.542 10.9838 16.4422C10.9806 16.4081 10.9806 16.3738 10.9838 16.3398C10.9735 16.28 10.9735 16.219 10.9838 16.1592C10.9838 16.0929 11.026 16.0206 11.0501 15.9544L12.3267 12.4919ZM12.9288 13.2808L12.3568 15.0873H13.4949L12.9288 13.2808Z" fill="#FEE500"/>
<path d="M14.9756 12.6847C14.9695 12.5496 15.0171 12.4175 15.1081 12.3174C15.1543 12.2708 15.2099 12.2343 15.2711 12.2105C15.3322 12.1866 15.3978 12.1758 15.4634 12.1788C15.5762 12.1775 15.6863 12.2135 15.7765 12.2812C15.8601 12.3519 15.9157 12.4501 15.9331 12.5582C15.939 12.6002 15.939 12.6428 15.9331 12.6847V15.8521H17.589C17.7038 15.8506 17.8166 15.8819 17.9142 15.9424C17.9581 15.9694 17.9957 16.0054 18.0248 16.048C18.0538 16.0905 18.0736 16.1386 18.0828 16.1893C18.0828 16.1893 18.0828 16.2495 18.0828 16.2797C18.0857 16.3396 18.074 16.3994 18.0489 16.4539C18.0237 16.5084 17.9858 16.5561 17.9383 16.5928C17.8333 16.6688 17.7066 16.7089 17.577 16.7072H15.5417C15.412 16.7155 15.2832 16.6818 15.1743 16.6109C15.077 16.5381 15.0121 16.43 14.9937 16.3098C14.9893 16.2436 14.9893 16.1772 14.9937 16.111L14.9756 12.6847Z" fill="#FEE500"/>
<path d="M18.1913 12.6848C18.1877 12.55 18.235 12.4189 18.3238 12.3175C18.414 12.2355 18.5298 12.187 18.6515 12.1805C18.7733 12.1739 18.8936 12.2095 18.9922 12.2813C19.0776 12.3513 19.1353 12.4495 19.1548 12.5583C19.1577 12.6004 19.1577 12.6427 19.1548 12.6848V14.1601L20.6782 12.4017C20.7369 12.3417 20.7993 12.2855 20.8649 12.2332C20.9268 12.1963 20.9977 12.1775 21.0697 12.1789C21.1749 12.1783 21.2778 12.2099 21.3647 12.2692C21.4057 12.2968 21.4406 12.3324 21.4675 12.3738C21.4944 12.4152 21.5127 12.4615 21.5213 12.5101C21.5237 12.522 21.5237 12.5344 21.5213 12.5463C21.5184 12.5602 21.5184 12.5745 21.5213 12.5884C21.5211 12.6518 21.5045 12.714 21.4731 12.7691C21.4412 12.8274 21.4028 12.8819 21.3587 12.9316L20.3591 14.0276L21.5634 15.8943V15.9545C21.626 16.0408 21.6747 16.1363 21.708 16.2376V16.2677C21.7149 16.3374 21.7049 16.4079 21.6786 16.4729C21.6524 16.5379 21.6108 16.5956 21.5574 16.641C21.457 16.7169 21.3341 16.7572 21.2082 16.7555C21.1245 16.7589 21.0414 16.7402 20.9673 16.7012C20.8871 16.6474 20.821 16.5751 20.7746 16.4905L19.6546 14.684L19.1186 15.244V16.2496C19.1222 16.3843 19.0749 16.5155 18.9862 16.6169C18.9386 16.6634 18.882 16.6997 18.8198 16.7236C18.7577 16.7474 18.6913 16.7582 18.6249 16.7555C18.5137 16.7578 18.4052 16.7216 18.3177 16.6531C18.2327 16.5853 18.175 16.4891 18.1552 16.3821C18.1492 16.3382 18.1492 16.2935 18.1552 16.2496L18.1913 12.6848Z" fill="#FEE500"/>
</svg>
