<svg width="30" height="30" viewBox="0 0 30 30" fill="none" xmlns="http://www.w3.org/2000/svg">
<g clip-path="url(#clip0_1_397)">
<path d="M23.1463 30H6.85375C3.08104 30 0 26.912 0 23.1463V6.85375C0 3.08803 3.08803 0 6.85375 0H23.1463C26.919 0 30 3.08803 30 6.85375V23.1463C30 26.919 26.919 30 23.1463 30Z" fill="#01DA58"/>
<path d="M22.1332 6.01538H7.76895C5.73588 6.01538 4.08008 7.67817 4.08008 9.70425V18.633C4.08008 20.6661 5.74286 22.3219 7.76895 22.3219H12.8411L13.7145 23.8309L14.5738 25.3191C14.7275 25.5915 15.1187 25.5915 15.2794 25.3191L16.1388 23.8309L17.0121 22.3219H22.1402C24.1732 22.3219 25.829 20.6591 25.829 18.633V9.71124C25.829 7.67817 24.1662 6.01538 22.1332 6.01538Z" fill="white"/>
<path d="M15.9571 12.5547C14.8463 12.5547 13.945 13.442 13.945 14.5389C13.945 15.6358 14.8463 16.5231 15.9571 16.5231C17.068 16.5231 17.9692 15.6358 17.9692 14.5389C17.9692 13.442 17.075 12.5547 15.9571 12.5547ZM15.9571 15.4891C15.4261 15.4891 14.993 15.0629 14.993 14.5389C14.993 14.0149 15.4261 13.5887 15.9571 13.5887C16.4881 13.5887 16.9213 14.0149 16.9213 14.5389C16.9213 15.0629 16.4951 15.4891 15.9571 15.4891Z" fill="#01D854"/>
<path d="M9.59245 12.5547C9.15929 12.5547 8.75407 12.7224 8.43968 13.0088V11.367H7.32184V16.4322H8.43968V16.0759C8.75407 16.3554 9.1523 16.53 9.59245 16.53C10.5915 16.53 11.4019 15.6427 11.4019 14.5459C11.4019 13.449 10.5985 12.5547 9.59245 12.5547ZM9.36888 15.531C8.95668 15.531 8.60037 15.2864 8.44666 14.9301C8.39776 14.8114 8.36283 14.6786 8.36283 14.5389C8.36283 14.3991 8.39077 14.2664 8.44666 14.1476C8.60037 13.7913 8.95668 13.5468 9.36888 13.5468C9.9278 13.5468 10.3749 13.9869 10.3749 14.5389C10.3749 15.0908 9.9278 15.531 9.36888 15.531Z" fill="#01D854"/>
<path d="M21.4555 12.6386V12.953C21.1411 12.7085 20.7499 12.5618 20.3307 12.5618C19.3037 12.5618 18.4723 13.4211 18.4723 14.4761C18.4723 15.531 19.3037 16.3904 20.3307 16.3904C20.7569 16.3904 21.1481 16.2436 21.4555 15.9991V16.5301C21.4555 16.5301 21.3437 17.0541 20.5613 17.0541V18.0392C20.5613 18.0392 21.4066 18.137 22.1612 17.3824C22.1612 17.3824 22.5105 17.0122 22.5873 16.5231V12.6386H21.4555ZM20.5403 15.4472C19.9744 15.4472 19.5203 15.007 19.5203 14.4691C19.5203 13.9311 19.9814 13.491 20.5403 13.491C20.9385 13.491 21.2878 13.7145 21.4555 14.0359C21.5254 14.1687 21.5603 14.3154 21.5603 14.4691C21.5603 14.6228 21.5184 14.7765 21.4555 14.9022C21.2878 15.2306 20.9385 15.4472 20.5403 15.4472Z" fill="#01D854"/>
<path d="M11.5277 11.2692V12.2823C11.5277 12.2823 12.0447 12.3521 12.1425 12.8552V16.4322H13.2953V12.8552V12.8272C13.2254 12.3242 12.925 11.9469 12.925 11.9469C12.2683 11.1714 11.5277 11.2692 11.5277 11.2692Z" fill="#01D854"/>
</g>
<defs>
<clipPath id="clip0_1_397">
<rect width="30" height="30" fill="white"/>
</clipPath>
</defs>
</svg>
