<svg width="24" height="24" viewBox="0 0 24 24" fill="none" xmlns="http://www.w3.org/2000/svg">
<path d="M8.24249 17.7628C8.08083 17.6047 8 17.4175 8 17.2013C8 16.9854 8.08083 16.7984 8.24249 16.6403L12.9792 12.0079L8.22633 7.35968C8.07544 7.21212 8 7.02767 8 6.80632C8 6.58498 8.08083 6.39526 8.24249 6.23715C8.40416 6.07905 8.59557 6 8.81672 6C9.03744 6 9.22864 6.07905 9.3903 6.23715L14.8222 11.5652C14.8868 11.6285 14.9327 11.697 14.9599 11.7708C14.9866 11.8445 15 11.9236 15 12.0079C15 12.0922 14.9866 12.1713 14.9599 12.2451C14.9327 12.3188 14.8868 12.3874 14.8222 12.4506L9.37413 17.7787C9.22325 17.9262 9.03744 18 8.81672 18C8.59557 18 8.40416 17.9209 8.24249 17.7628Z" fill="#15171A"/>
</svg>
