<svg width="10" height="12" viewBox="0 0 10 12" fill="none" xmlns="http://www.w3.org/2000/svg">
<path d="M9.28571 4.92857H6.07143V1.71429C6.07143 1.31987 5.75156 1 5.35714 1H4.64286C4.24844 1 3.92857 1.31987 3.92857 1.71429V4.92857H0.714286C0.319866 4.92857 0 5.24844 0 5.64286V6.35714C0 6.75156 0.319866 7.07143 0.714286 7.07143H3.92857V10.2857C3.92857 10.6801 4.24844 11 4.64286 11H5.35714C5.75156 11 6.07143 10.6801 6.07143 10.2857V7.07143H9.28571C9.68013 7.07143 10 6.75156 10 6.35714V5.64286C10 5.24844 9.68013 4.92857 9.28571 4.92857Z" fill="white"/>
</svg>
