<svg width="24" height="24" viewBox="0 0 24 24" fill="none" xmlns="http://www.w3.org/2000/svg">
<path d="M15.7575 17.7628C15.9192 17.6047 16 17.4175 16 17.2013C16 16.9854 15.9192 16.7984 15.7575 16.6403L11.0208 12.0079L15.7737 7.35968C15.9246 7.21212 16 7.02767 16 6.80632C16 6.58498 15.9192 6.39526 15.7575 6.23715C15.5958 6.07905 15.4044 6 15.1833 6C14.9626 6 14.7714 6.07905 14.6097 6.23715L9.17783 11.5652C9.11316 11.6285 9.06725 11.697 9.04009 11.7708C9.01336 11.8445 9 11.9236 9 12.0079C9 12.0922 9.01336 12.1713 9.04009 12.2451C9.06725 12.3188 9.11316 12.3874 9.17783 12.4506L14.6259 17.7787C14.7768 17.9262 14.9626 18 15.1833 18C15.4044 18 15.5958 17.9209 15.7575 17.7628Z" fill="#CDCDCD"/>
</svg>
