<svg width="41" height="40" viewBox="0 0 41 40" fill="none" xmlns="http://www.w3.org/2000/svg">
<rect x="0.5" width="40" height="40" rx="8" fill="#EEEEFA"/>
<path fill-rule="evenodd" clip-rule="evenodd" d="M12.25 10C11.284 10 10.5 10.784 10.5 11.75V28.25C10.5 28.7141 10.6844 29.1592 11.0126 29.4874C11.3408 29.8156 11.7859 30 12.25 30H28.75C29.2141 30 29.6592 29.8156 29.9874 29.4874C30.3156 29.1592 30.5 28.7141 30.5 28.25V11.75C30.5 10.784 29.716 10 28.75 10H12.25ZM28.75 11.5H12.25C12.1837 11.5 12.1201 11.5263 12.0732 11.5732C12.0263 11.6201 12 11.6837 12 11.75V28.25C12 28.3163 12.0263 28.3799 12.0732 28.4268C12.1201 28.4737 12.1837 28.5 12.25 28.5H28.75C28.8163 28.5 28.8799 28.4737 28.9268 28.4268C28.9737 28.3799 29 28.3163 29 28.25V11.75C29 11.6837 28.9737 11.6201 28.9268 11.5732C28.8799 11.5263 28.8163 11.5 28.75 11.5ZM16.7197 15.2197C16.8603 15.079 17.0511 15 17.25 15H24.75C24.9489 15 25.1397 15.079 25.2803 15.2197C25.421 15.3603 25.5 15.5511 25.5 15.75C25.5 15.9489 25.421 16.1397 25.2803 16.2803C25.1397 16.421 24.9489 16.5 24.75 16.5H17.25C17.0511 16.5 16.8603 16.421 16.7197 16.2803C16.579 16.1397 16.5 15.9489 16.5 15.75C16.5 15.5511 16.579 15.3603 16.7197 15.2197ZM15.7197 19.2197C15.579 19.3603 15.5 19.5511 15.5 19.75C15.5 19.9489 15.579 20.1397 15.7197 20.2803C15.8603 20.421 16.0511 20.5 16.25 20.5H22.75C22.9489 20.5 23.1397 20.421 23.2803 20.2803C23.421 20.1397 23.5 19.9489 23.5 19.75C23.5 19.5511 23.421 19.3603 23.2803 19.2197C23.1397 19.079 22.9489 19 22.75 19H16.25C16.0511 19 15.8603 19.079 15.7197 19.2197ZM17.7197 23.2197C17.8603 23.079 18.0511 23 18.25 23H24.75C24.9489 23 25.1397 23.079 25.2803 23.2197C25.421 23.3603 25.5 23.5511 25.5 23.75C25.5 23.9489 25.421 24.1397 25.2803 24.2803C25.1397 24.421 24.9489 24.5 24.75 24.5H18.25C18.0511 24.5 17.8603 24.421 17.7197 24.2803C17.579 24.1397 17.5 23.9489 17.5 23.75C17.5 23.5511 17.579 23.3603 17.7197 23.2197Z" fill="#585858"/>
</svg>
