<svg width="40" height="40" viewBox="0 0 40 40" fill="none" xmlns="http://www.w3.org/2000/svg">
<rect y="0.00195312" width="39.9971" height="39.9971" rx="8" fill="#EEEEFA"/>
<path fill-rule="evenodd" clip-rule="evenodd" d="M11.5 28.4991V11.502H28.4971V28.4991H11.5ZM11.3666 10.002C11.0041 10.002 10.6565 10.1459 10.4003 10.4022C10.144 10.6585 10 11.0061 10 11.3685V28.6325C10 28.9949 10.144 29.3425 10.4003 29.5988C10.6565 29.8551 11.0041 29.9991 11.3666 29.9991H28.6305C28.993 29.9991 29.3406 29.8551 29.5969 29.5988C29.8531 29.3425 29.9971 28.9949 29.9971 28.6325V11.3685C29.9971 11.0061 29.8531 10.6585 29.5969 10.4022C29.3406 10.1459 28.993 10.002 28.6305 10.002H11.3666ZM13.833 13.0841C13.4188 13.0841 13.083 13.4198 13.083 13.8341C13.083 14.2483 13.4188 14.5841 13.833 14.5841H16.9159C17.3301 14.5841 17.6659 14.2483 17.6659 13.8341C17.6659 13.4198 17.3301 13.0841 16.9159 13.0841H13.833ZM22.3091 15.1168C22.6503 14.7757 23.1129 14.5841 23.5954 14.5841C24.0778 14.5841 24.5405 14.7757 24.8816 15.1168C25.2228 15.458 25.4144 15.9207 25.4144 16.4031C25.4144 16.8855 25.2228 17.3482 24.8816 17.6894C24.5405 18.0305 24.0778 18.2221 23.5954 18.2221C23.1129 18.2221 22.6503 18.0305 22.3091 17.6894C21.968 17.3482 21.7763 16.8855 21.7763 16.4031C21.7763 15.9207 21.968 15.458 22.3091 15.1168ZM23.5954 13.0841C22.7151 13.0841 21.8709 13.4337 21.2485 14.0562C20.626 14.6786 20.2763 15.5228 20.2763 16.4031C20.2763 17.2834 20.626 18.1276 21.2485 18.75C21.8709 19.3725 22.7151 19.7221 23.5954 19.7221C24.4756 19.7221 25.3198 19.3725 25.9423 18.75C26.5647 18.1276 26.9144 17.2834 26.9144 16.4031C26.9144 15.5228 26.5647 14.6786 25.9423 14.0562C25.3198 13.4337 24.4756 13.0841 23.5954 13.0841ZM13.833 16.1669C13.4188 16.1669 13.083 16.5027 13.083 16.9169C13.083 17.3311 13.4188 17.6669 13.833 17.6669H17.9435C18.3577 17.6669 18.6935 17.3311 18.6935 16.9169C18.6935 16.5027 18.3577 16.1669 17.9435 16.1669H13.833ZM14.3015 20.4417C13.9781 20.183 13.5061 20.2354 13.2474 20.5589C12.9886 20.8823 13.041 21.3543 13.3645 21.613L18.5026 25.7235C18.7765 25.9426 19.1657 25.9426 19.4396 25.7235L21.5804 24.0109L25.7484 26.7895C26.093 27.0193 26.5587 26.9261 26.7885 26.5815C27.0182 26.2368 26.9251 25.7712 26.5804 25.5414L21.9562 22.4586C21.6844 22.2774 21.3267 22.2929 21.0716 22.497L18.9711 24.1774L14.3015 20.4417Z" fill="#585858"/>
</svg>
