<svg width="40" height="40" viewBox="0 0 40 40" fill="none" xmlns="http://www.w3.org/2000/svg">
<circle cx="20" cy="20" r="20" fill="#434343"/>
<path d="M27.0531 12H12.6889C10.6558 12 9 13.6628 9 15.6889V24.6176C9 26.6507 10.6628 28.3065 12.6889 28.3065H17.7611L18.6344 29.8156L19.4937 31.3037C19.6474 31.5762 20.0387 31.5762 20.1993 31.3037L21.0587 29.8156L21.932 28.3065H27.0601C29.0932 28.3065 30.749 26.6437 30.749 24.6176V15.6959C30.749 13.6628 29.0862 12 27.0531 12Z" fill="white"/>
<path d="M20.877 18.5394C19.7662 18.5394 18.8649 19.4267 18.8649 20.5235C18.8649 21.6204 19.7662 22.5077 20.877 22.5077C21.9879 22.5077 22.8891 21.6204 22.8891 20.5235C22.8891 19.4267 21.9949 18.5394 20.877 18.5394ZM20.877 21.4737C20.3461 21.4737 19.9129 21.0475 19.9129 20.5235C19.9129 19.9995 20.3461 19.5734 20.877 19.5734C21.408 19.5734 21.8412 19.9995 21.8412 20.5235C21.8412 21.0475 21.415 21.4737 20.877 21.4737Z" fill="#434343"/>
<path d="M14.5124 18.5393C14.0792 18.5393 13.674 18.707 13.3596 18.9935V17.3516H12.2418V22.4168H13.3596V22.0605C13.674 22.34 14.0722 22.5147 14.5124 22.5147C15.5114 22.5147 16.3219 21.6274 16.3219 20.5305C16.3219 19.4336 15.5184 18.5393 14.5124 18.5393ZM14.2888 21.5156C13.8766 21.5156 13.5203 21.2711 13.3666 20.9147C13.3177 20.796 13.2827 20.6632 13.2827 20.5235C13.2827 20.3838 13.3107 20.251 13.3666 20.1323C13.5203 19.7759 13.8766 19.5314 14.2888 19.5314C14.8477 19.5314 15.2949 19.9716 15.2949 20.5235C15.2949 21.0754 14.8477 21.5156 14.2888 21.5156Z" fill="#434343"/>
<path d="M26.3754 18.6232V18.9376C26.0611 18.6931 25.6698 18.5464 25.2506 18.5464C24.2236 18.5464 23.3922 19.4057 23.3922 20.4607C23.3922 21.5156 24.2236 22.375 25.2506 22.375C25.6768 22.375 26.068 22.2283 26.3754 21.9837V22.5147C26.3754 22.5147 26.2637 23.0387 25.4812 23.0387V24.0238C25.4812 24.0238 26.3265 24.1216 27.0811 23.3671C27.0811 23.3671 27.4304 22.9968 27.5073 22.5077V18.6232H26.3754ZM25.4602 21.4318C24.8943 21.4318 24.4402 20.9917 24.4402 20.4537C24.4402 19.9157 24.9013 19.4756 25.4602 19.4756C25.8584 19.4756 26.2078 19.6992 26.3754 20.0205C26.4453 20.1533 26.4802 20.3 26.4802 20.4537C26.4802 20.6074 26.4383 20.7611 26.3754 20.8869C26.2078 21.2152 25.8584 21.4318 25.4602 21.4318Z" fill="#434343"/>
<path d="M16.4476 17.2538V18.2669C16.4476 18.2669 16.9646 18.3368 17.0624 18.8398V22.4169H18.2152V18.8398V18.8118C18.1454 18.3088 17.8449 17.9315 17.8449 17.9315C17.1882 17.156 16.4476 17.2538 16.4476 17.2538Z" fill="#434343"/>
</svg>
