<svg width="40" height="40" viewBox="0 0 40 40" fill="none" xmlns="http://www.w3.org/2000/svg">
<rect width="40" height="40" rx="8" fill="#EEEEFA"/>
<path d="M28 14.2105C28.58 14.2105 29.05 14.4211 29.42 14.8316C29.8 15.2632 30 15.7368 30 16.3158V27.8947C30 28.4737 29.8 28.9474 29.42 29.3789C29.05 29.7895 28.58 30 28 30H12C11.42 30 10.95 29.7895 10.58 29.3789C10.2 28.9474 10 28.4737 10 27.8947V16.3158C10 15.7368 10.2 15.2632 10.58 14.8316C10.95 14.4211 11.42 14.2105 12 14.2105H16V12.1053C16 11.4947 16.2 11 16.58 10.6105C16.95 10.2105 17.42 10 18 10H22C22.58 10 23.05 10.2105 23.42 10.6105C23.8 11 24 11.4947 24 12.1053V14.2105H28ZM12 16.3158V27.8947H28V16.3158H12ZM22 14.2105V12.1053H18V14.2105H22Z" fill="#585858"/>
</svg>
