<svg width="20" height="20" viewBox="0 0 20 20" fill="none" xmlns="http://www.w3.org/2000/svg">
<rect x="0.5" y="0.5" width="19" height="19" rx="3.5" fill="#5850CC" stroke="#EEEEEE"/>
<path d="M8.20628 12.4811L13.4978 6.28863C13.6622 6.09621 13.8714 6 14.1256 6C14.3797 6 14.5889 6.09621 14.7534 6.28863C14.9178 6.48105 15 6.72595 15 7.02332C15 7.3207 14.9178 7.5656 14.7534 7.75802L8.83408 14.6851C8.65471 14.895 8.44544 15 8.20628 15C7.96711 15 7.75785 14.895 7.57848 14.6851L5.24664 11.9563C5.08221 11.7638 5 11.519 5 11.2216C5 10.9242 5.08221 10.6793 5.24664 10.4869C5.41106 10.2945 5.62033 10.1983 5.87444 10.1983C6.12855 10.1983 6.33782 10.2945 6.50224 10.4869L8.20628 12.4811Z" fill="white"/>
</svg>
