<svg width="16" height="16" viewBox="0 0 16 16" fill="none" xmlns="http://www.w3.org/2000/svg">
<path d="M13.0311 11.9688C13.1011 12.0385 13.1565 12.1213 13.1944 12.2125C13.2322 12.3036 13.2517 12.4014 13.2517 12.5001C13.2517 12.5988 13.2322 12.6965 13.1944 12.7877C13.1565 12.8789 13.1011 12.9617 13.0311 13.0313C12.8896 13.171 12.6987 13.2494 12.4999 13.2494C12.301 13.2494 12.1102 13.171 11.9686 13.0313L7.99989 9.06258L4.03114 13.0313C3.88961 13.171 3.69875 13.2494 3.49989 13.2494C3.30103 13.2494 3.11017 13.171 2.96864 13.0313C2.89872 12.9617 2.84324 12.8789 2.80539 12.7877C2.76753 12.6965 2.74805 12.5988 2.74805 12.5001C2.74805 12.4014 2.76753 12.3036 2.80539 12.2125C2.84324 12.1213 2.89872 12.0385 2.96864 11.9688L6.93739 8.00008L2.96864 4.03133C2.82774 3.89043 2.74859 3.69934 2.74859 3.50008C2.74859 3.40142 2.76802 3.30372 2.80578 3.21257C2.84353 3.12142 2.89887 3.0386 2.96864 2.96883C3.0384 2.89907 3.12123 2.84373 3.21238 2.80597C3.30353 2.76821 3.40123 2.74878 3.49989 2.74878C3.69915 2.74878 3.89024 2.82793 4.03114 2.96883L7.99989 6.93758L11.9686 2.96883C12.1095 2.82793 12.3006 2.74878 12.4999 2.74878C12.6991 2.74878 12.8902 2.82793 13.0311 2.96883C13.172 3.10973 13.2512 3.30082 13.2512 3.50008C13.2512 3.69934 13.172 3.89043 13.0311 4.03133L9.06239 8.00008L13.0311 11.9688Z" fill="#585858"/>
</svg>
