<svg width="28" height="28" viewBox="0 0 28 28" fill="none" xmlns="http://www.w3.org/2000/svg">
<path d="M15.517 20.1544C15.2837 19.9211 15.1717 19.6391 15.181 19.3086C15.1911 18.978 15.3128 18.6961 15.5462 18.4628L18.842 15.1669H5.83366C5.5031 15.1669 5.22583 15.0549 5.00183 14.8309C4.7786 14.6077 4.66699 14.3308 4.66699 14.0003C4.66699 13.6697 4.7786 13.3924 5.00183 13.1684C5.22583 12.9452 5.5031 12.8336 5.83366 12.8336H18.842L15.517 9.50859C15.2837 9.27526 15.167 8.99798 15.167 8.67676C15.167 8.35632 15.2837 8.07943 15.517 7.84609C15.7503 7.61276 16.0276 7.49609 16.3488 7.49609C16.6693 7.49609 16.9462 7.61276 17.1795 7.84609L22.517 13.1836C22.6337 13.3003 22.7165 13.4266 22.7655 13.5628C22.8137 13.6989 22.8378 13.8447 22.8378 14.0003C22.8378 14.1558 22.8137 14.3016 22.7655 14.4378C22.7165 14.5739 22.6337 14.7003 22.517 14.8169L17.1503 20.1836C16.9364 20.3975 16.6693 20.5044 16.3488 20.5044C16.0276 20.5044 15.7503 20.3878 15.517 20.1544V20.1544Z" fill="white"/>
</svg>
