<svg width="373" height="237" viewBox="0 0 373 237" fill="none" xmlns="http://www.w3.org/2000/svg">
<g filter="url(#filter0_d_44_2222)">
<rect x="145" y="55" width="200" height="100" rx="16" fill="#EEEEFA"/>
</g>
<rect x="165" y="85" width="57" height="6" rx="2" fill="#CDCDCD"/>
<rect x="165" y="105" width="132" height="6" rx="2" fill="#EEEEEE"/>
<g filter="url(#filter1_d_44_2222)">
<rect x="42" y="105" width="200" height="100" rx="16" fill="white"/>
</g>
<rect x="62" y="135" width="57" height="6" rx="2" fill="#CDCDCD"/>
<rect x="62" y="155" width="132" height="6" rx="2" fill="#EEEEEE"/>
<circle cx="68" cy="29" r="5.5" stroke="#EEEEEE"/>
<circle cx="5" cy="83" r="5" fill="#CDCDCD"/>
<circle cx="334" cy="192" r="4" fill="#EEEEEE"/>
<circle cx="279" cy="6" r="5.5" stroke="#EEEEEE"/>
<path fill-rule="evenodd" clip-rule="evenodd" d="M22 155.5C22 155.224 21.7761 155 21.5 155C21.2239 155 21 155.224 21 155.5V158H18.5C18.2239 158 18 158.224 18 158.5C18 158.776 18.2239 159 18.5 159H21V161.5C21 161.776 21.2239 162 21.5 162C21.7761 162 22 161.776 22 161.5V159H24.5C24.7761 159 25 158.776 25 158.5C25 158.224 24.7761 158 24.5 158H22V155.5Z" fill="#D9D9D9"/>
<path fill-rule="evenodd" clip-rule="evenodd" d="M166 36.5C166 36.2239 165.776 36 165.5 36C165.224 36 165 36.2239 165 36.5V40H161.5C161.224 40 161 40.2239 161 40.5C161 40.7761 161.224 41 161.5 41H165V44.5C165 44.7761 165.224 45 165.5 45C165.776 45 166 44.7761 166 44.5V41H169.5C169.776 41 170 40.7761 170 40.5C170 40.2239 169.776 40 169.5 40H166V36.5Z" fill="#D9D9D9"/>
<path fill-rule="evenodd" clip-rule="evenodd" d="M368 86.5C368 86.2239 367.776 86 367.5 86C367.224 86 367 86.2239 367 86.5V88H365.5C365.224 88 365 88.2239 365 88.5C365 88.7761 365.224 89 365.5 89H367V90.5C367 90.7761 367.224 91 367.5 91C367.776 91 368 90.7761 368 90.5V89H369.5C369.776 89 370 88.7761 370 88.5C370 88.2239 369.776 88 369.5 88H368V86.5Z" fill="#D9D9D9"/>
<defs>
<filter id="filter0_d_44_2222" x="117" y="31" width="256" height="156" filterUnits="userSpaceOnUse" color-interpolation-filters="sRGB">
<feFlood flood-opacity="0" result="BackgroundImageFix"/>
<feColorMatrix in="SourceAlpha" type="matrix" values="0 0 0 0 0 0 0 0 0 0 0 0 0 0 0 0 0 0 127 0" result="hardAlpha"/>
<feOffset dy="4"/>
<feGaussianBlur stdDeviation="14"/>
<feComposite in2="hardAlpha" operator="out"/>
<feColorMatrix type="matrix" values="0 0 0 0 0.345098 0 0 0 0 0.313726 0 0 0 0 0.8 0 0 0 0.1 0"/>
<feBlend mode="normal" in2="BackgroundImageFix" result="effect1_dropShadow_44_2222"/>
<feBlend mode="normal" in="SourceGraphic" in2="effect1_dropShadow_44_2222" result="shape"/>
</filter>
<filter id="filter1_d_44_2222" x="14" y="81" width="256" height="156" filterUnits="userSpaceOnUse" color-interpolation-filters="sRGB">
<feFlood flood-opacity="0" result="BackgroundImageFix"/>
<feColorMatrix in="SourceAlpha" type="matrix" values="0 0 0 0 0 0 0 0 0 0 0 0 0 0 0 0 0 0 127 0" result="hardAlpha"/>
<feOffset dy="4"/>
<feGaussianBlur stdDeviation="14"/>
<feComposite in2="hardAlpha" operator="out"/>
<feColorMatrix type="matrix" values="0 0 0 0 0.345098 0 0 0 0 0.313726 0 0 0 0 0.8 0 0 0 0.18 0"/>
<feBlend mode="normal" in2="BackgroundImageFix" result="effect1_dropShadow_44_2222"/>
<feBlend mode="normal" in="SourceGraphic" in2="effect1_dropShadow_44_2222" result="shape"/>
</filter>
</defs>
</svg>
