<svg width="40" height="40" viewBox="0 0 40 40" fill="none" xmlns="http://www.w3.org/2000/svg">
<rect width="40" height="40" rx="8" fill="#EEEEFA"/>
<path d="M20.04 11.5L17.53 14H22.53L20.04 11.5ZM12 16V29H28V16H12ZM20 9L25 14H28C28.5304 14 29.0391 14.2107 29.4142 14.5858C29.7893 14.9609 30 15.4696 30 16V29C30 29.5304 29.7893 30.0391 29.4142 30.4142C29.0391 30.7893 28.5304 31 28 31H12C11.4696 31 10.9609 30.7893 10.5858 30.4142C10.2107 30.0391 10 29.5304 10 29V16C10 15.4696 10.2107 14.9609 10.5858 14.5858C10.9609 14.2107 11.4696 14 12 14H15L20 9ZM15 27V23H20V27H15ZM22 26V19H26V26H22ZM14 21V18H19V21H14Z" fill="#585858"/>
</svg>
