<svg width="40" height="40" viewBox="0 0 40 40" fill="none" xmlns="http://www.w3.org/2000/svg">
<rect width="40" height="40" rx="8" fill="#EEEEFA"/>
<path fill-rule="evenodd" clip-rule="evenodd" d="M28.4993 14.2857H30V15.7143H28.4993C28.4072 16.1614 28.2296 16.5866 27.9764 16.9664L29.0407 18.0307L28.0307 19.0407L26.9664 17.9764C26.5866 18.2296 26.1614 18.4072 25.7143 18.4993V20H24.2857V18.4993C23.8386 18.4072 23.4134 18.2296 23.0336 17.9764L21.9693 19.0407L20.9593 18.0307L22.0236 16.9664C21.7704 16.5866 21.5928 16.1614 21.5007 15.7143H20V14.2857H21.5007C21.5928 13.8386 21.7704 13.4134 22.0236 13.0336L20.9593 11.9693L21.9693 10.9593L23.0336 12.0236C23.4134 11.7704 23.8386 11.5928 24.2857 11.5007V10H25.7143V11.5007C26.1614 11.5928 26.5866 11.7704 26.9664 12.0236L28.0307 10.9593L29.0407 11.9693L27.9764 13.0336C28.2296 13.4134 28.4072 13.8386 28.4993 14.2857ZM23.8095 16.7817C24.1619 17.0172 24.5762 17.1429 25 17.1429C25.5681 17.1423 26.1129 16.9163 26.5146 16.5146C26.9163 16.1129 27.1423 15.5681 27.1429 15C27.1429 14.5762 27.0172 14.1619 26.7817 13.8095C26.5463 13.4571 26.2116 13.1824 25.82 13.0203C25.4285 12.8581 24.9976 12.8156 24.5819 12.8983C24.1663 12.981 23.7845 13.1851 23.4848 13.4848C23.1851 13.7845 22.981 14.1663 22.8983 14.5819C22.8156 14.9976 22.8581 15.4285 23.0203 15.82C23.1824 16.2116 23.4571 16.5463 23.8095 16.7817ZM28.5714 24.2857V20.7143H30V24.2857C30 24.6646 29.8495 25.028 29.5816 25.2959C29.3137 25.5638 28.9503 25.7143 28.5714 25.7143H22.8571V28.5714H25.7143V30H14.2857V28.5714H17.1429V25.7143H11.4286C11.0497 25.7143 10.6863 25.5638 10.4184 25.2959C10.1505 25.028 10 24.6646 10 24.2857V12.8571C10 12.4783 10.1505 12.1149 10.4184 11.847C10.6863 11.5791 11.0497 11.4286 11.4286 11.4286H18.5714V12.8571H11.4286V24.2857H28.5714ZM18.5714 25.7143V28.5714H21.4286V25.7143H18.5714Z" fill="#585858"/>
</svg>
