<svg width="24" height="24" viewBox="0 0 24 24" fill="none" xmlns="http://www.w3.org/2000/svg">
<path d="M8.27714 18.7233C8.09238 18.5389 8 18.3205 8 18.0681C8 17.8163 8.09238 17.5982 8.27714 17.4137L13.6905 12.0092L8.25866 6.5863C8.08622 6.41414 8 6.19895 8 5.94071C8 5.68248 8.09238 5.46113 8.27714 5.27668C8.46189 5.09223 8.68065 5 8.93339 5C9.18565 5 9.40416 5.09223 9.58891 5.27668L15.7968 11.4928C15.8707 11.5665 15.9231 11.6465 15.9542 11.7325C15.9847 11.8186 16 11.9108 16 12.0092C16 12.1076 15.9847 12.1998 15.9542 12.2859C15.9231 12.372 15.8707 12.4519 15.7968 12.5257L9.57044 18.7418C9.398 18.9139 9.18565 19 8.93339 19C8.68065 19 8.46189 18.9078 8.27714 18.7233Z" fill="#858585"/>
</svg>
