<svg width="24" height="30" viewBox="0 0 24 30" fill="none" xmlns="http://www.w3.org/2000/svg">
<path d="M6.921 21.6885V22.7263C6.921 22.8669 6.86965 22.9885 6.76694 23.0912C6.66424 23.1939 6.54262 23.2453 6.40208 23.2453H5.36424C5.2237 23.2453 5.10208 23.1939 4.99938 23.0912C4.89667 22.9885 4.84532 22.8669 4.84532 22.7263V21.6885C4.84532 21.548 4.89667 21.4263 4.99938 21.3236C5.10208 21.2209 5.2237 21.1696 5.36424 21.1696H6.40208C6.54262 21.1696 6.66424 21.2209 6.76694 21.3236C6.86965 21.4263 6.921 21.548 6.921 21.6885ZM6.921 17.5372V18.575C6.921 18.7155 6.86965 18.8372 6.76694 18.9399C6.66424 19.0426 6.54262 19.0939 6.40208 19.0939H5.36424C5.2237 19.0939 5.10208 19.0426 4.99938 18.9399C4.89667 18.8372 4.84532 18.7155 4.84532 18.575V17.5372C4.84532 17.3966 4.89667 17.275 4.99938 17.1723C5.10208 17.0696 5.2237 17.0182 5.36424 17.0182H6.40208C6.54262 17.0182 6.66424 17.0696 6.76694 17.1723C6.86965 17.275 6.921 17.3966 6.921 17.5372ZM11.0723 17.5372V18.575C11.0723 18.7155 11.021 18.8372 10.9183 18.9399C10.8156 19.0426 10.694 19.0939 10.5534 19.0939H9.51559C9.37505 19.0939 9.25343 19.0426 9.15073 18.9399C9.04802 18.8372 8.99667 18.7155 8.99667 18.575V17.5372C8.99667 17.3966 9.04802 17.275 9.15073 17.1723C9.25343 17.0696 9.37505 17.0182 9.51559 17.0182H10.5534C10.694 17.0182 10.8156 17.0696 10.9183 17.1723C11.021 17.275 11.0723 17.3966 11.0723 17.5372ZM6.921 13.3858V14.4236C6.921 14.5642 6.86965 14.6858 6.76694 14.7885C6.66424 14.8912 6.54262 14.9426 6.40208 14.9426H5.36424C5.2237 14.9426 5.10208 14.8912 4.99938 14.7885C4.89667 14.6858 4.84532 14.5642 4.84532 14.4236V13.3858C4.84532 13.2453 4.89667 13.1236 4.99938 13.0209C5.10208 12.9182 5.2237 12.8669 5.36424 12.8669H6.40208C6.54262 12.8669 6.66424 12.9182 6.76694 13.0209C6.86965 13.1236 6.921 13.2453 6.921 13.3858ZM19.3751 21.6885V22.7263C19.3751 22.8669 19.3237 22.9885 19.221 23.0912C19.1183 23.1939 18.9967 23.2453 18.8561 23.2453H17.8183C17.6778 23.2453 17.5561 23.1939 17.4534 23.0912C17.3507 22.9885 17.2994 22.8669 17.2994 22.7263V21.6885C17.2994 21.548 17.3507 21.4263 17.4534 21.3236C17.5561 21.2209 17.6778 21.1696 17.8183 21.1696H18.8561C18.9967 21.1696 19.1183 21.2209 19.221 21.3236C19.3237 21.4263 19.3751 21.548 19.3751 21.6885ZM15.2237 17.5372V18.575C15.2237 18.7155 15.1723 18.8372 15.0696 18.9399C14.9669 19.0426 14.8453 19.0939 14.7048 19.0939H13.6669C13.5264 19.0939 13.4048 19.0426 13.3021 18.9399C13.1994 18.8372 13.148 18.7155 13.148 18.575V17.5372C13.148 17.3966 13.1994 17.275 13.3021 17.1723C13.4048 17.0696 13.5264 17.0182 13.6669 17.0182H14.7048C14.8453 17.0182 14.9669 17.0696 15.0696 17.1723C15.1723 17.275 15.2237 17.3966 15.2237 17.5372ZM11.0723 13.3858V14.4236C11.0723 14.5642 11.021 14.6858 10.9183 14.7885C10.8156 14.8912 10.694 14.9426 10.5534 14.9426H9.51559C9.37505 14.9426 9.25343 14.8912 9.15073 14.7885C9.04802 14.6858 8.99667 14.5642 8.99667 14.4236V13.3858C8.99667 13.2453 9.04802 13.1236 9.15073 13.0209C9.25343 12.9182 9.37505 12.8669 9.51559 12.8669H10.5534C10.694 12.8669 10.8156 12.9182 10.9183 13.0209C11.021 13.1236 11.0723 13.2453 11.0723 13.3858ZM6.921 9.23445V10.2723C6.921 10.4128 6.86965 10.5345 6.76694 10.6372C6.66424 10.7399 6.54262 10.7912 6.40208 10.7912H5.36424C5.2237 10.7912 5.10208 10.7399 4.99938 10.6372C4.89667 10.5345 4.84532 10.4128 4.84532 10.2723V9.23445C4.84532 9.09391 4.89667 8.97229 4.99938 8.86959C5.10208 8.76688 5.2237 8.71553 5.36424 8.71553H6.40208C6.54262 8.71553 6.66424 8.76688 6.76694 8.86959C6.86965 8.97229 6.921 9.09391 6.921 9.23445ZM19.3751 17.5372V18.575C19.3751 18.7155 19.3237 18.8372 19.221 18.9399C19.1183 19.0426 18.9967 19.0939 18.8561 19.0939H17.8183C17.6778 19.0939 17.5561 19.0426 17.4534 18.9399C17.3507 18.8372 17.2994 18.7155 17.2994 18.575V17.5372C17.2994 17.3966 17.3507 17.275 17.4534 17.1723C17.5561 17.0696 17.6778 17.0182 17.8183 17.0182H18.8561C18.9967 17.0182 19.1183 17.0696 19.221 17.1723C19.3237 17.275 19.3751 17.3966 19.3751 17.5372ZM15.2237 13.3858V14.4236C15.2237 14.5642 15.1723 14.6858 15.0696 14.7885C14.9669 14.8912 14.8453 14.9426 14.7048 14.9426H13.6669C13.5264 14.9426 13.4048 14.8912 13.3021 14.7885C13.1994 14.6858 13.148 14.5642 13.148 14.4236V13.3858C13.148 13.2453 13.1994 13.1236 13.3021 13.0209C13.4048 12.9182 13.5264 12.8669 13.6669 12.8669H14.7048C14.8453 12.8669 14.9669 12.9182 15.0696 13.0209C15.1723 13.1236 15.2237 13.2453 15.2237 13.3858ZM11.0723 9.23445V10.2723C11.0723 10.4128 11.021 10.5345 10.9183 10.6372C10.8156 10.7399 10.694 10.7912 10.5534 10.7912H9.51559C9.37505 10.7912 9.25343 10.7399 9.15073 10.6372C9.04802 10.5345 8.99667 10.4128 8.99667 10.2723V9.23445C8.99667 9.09391 9.04802 8.97229 9.15073 8.86959C9.25343 8.76688 9.37505 8.71553 9.51559 8.71553H10.5534C10.694 8.71553 10.8156 8.76688 10.9183 8.86959C11.021 8.97229 11.0723 9.09391 11.0723 9.23445ZM6.921 5.0831V6.12094C6.921 6.26148 6.86965 6.3831 6.76694 6.4858C6.66424 6.58851 6.54262 6.63986 6.40208 6.63986H5.36424C5.2237 6.63986 5.10208 6.58851 4.99938 6.4858C4.89667 6.3831 4.84532 6.26148 4.84532 6.12094V5.0831C4.84532 4.94256 4.89667 4.82094 4.99938 4.71824C5.10208 4.61553 5.2237 4.56418 5.36424 4.56418H6.40208C6.54262 4.56418 6.66424 4.61553 6.76694 4.71824C6.86965 4.82094 6.921 4.94256 6.921 5.0831ZM19.3751 13.3858V14.4236C19.3751 14.5642 19.3237 14.6858 19.221 14.7885C19.1183 14.8912 18.9967 14.9426 18.8561 14.9426H17.8183C17.6778 14.9426 17.5561 14.8912 17.4534 14.7885C17.3507 14.6858 17.2994 14.5642 17.2994 14.4236V13.3858C17.2994 13.2453 17.3507 13.1236 17.4534 13.0209C17.5561 12.9182 17.6778 12.8669 17.8183 12.8669H18.8561C18.9967 12.8669 19.1183 12.9182 19.221 13.0209C19.3237 13.1236 19.3751 13.2453 19.3751 13.3858ZM15.2237 9.23445V10.2723C15.2237 10.4128 15.1723 10.5345 15.0696 10.6372C14.9669 10.7399 14.8453 10.7912 14.7048 10.7912H13.6669C13.5264 10.7912 13.4048 10.7399 13.3021 10.6372C13.1994 10.5345 13.148 10.4128 13.148 10.2723V9.23445C13.148 9.09391 13.1994 8.97229 13.3021 8.86959C13.4048 8.76688 13.5264 8.71553 13.6669 8.71553H14.7048C14.8453 8.71553 14.9669 8.76688 15.0696 8.86959C15.1723 8.97229 15.2237 9.09391 15.2237 9.23445ZM11.0723 5.0831V6.12094C11.0723 6.26148 11.021 6.3831 10.9183 6.4858C10.8156 6.58851 10.694 6.63986 10.5534 6.63986H9.51559C9.37505 6.63986 9.25343 6.58851 9.15073 6.4858C9.04802 6.3831 8.99667 6.26148 8.99667 6.12094V5.0831C8.99667 4.94256 9.04802 4.82094 9.15073 4.71824C9.25343 4.61553 9.37505 4.56418 9.51559 4.56418H10.5534C10.694 4.56418 10.8156 4.61553 10.9183 4.71824C11.021 4.82094 11.0723 4.94256 11.0723 5.0831ZM19.3751 9.23445V10.2723C19.3751 10.4128 19.3237 10.5345 19.221 10.6372C19.1183 10.7399 18.9967 10.7912 18.8561 10.7912H17.8183C17.6778 10.7912 17.5561 10.7399 17.4534 10.6372C17.3507 10.5345 17.2994 10.4128 17.2994 10.2723V9.23445C17.2994 9.09391 17.3507 8.97229 17.4534 8.86959C17.5561 8.76688 17.6778 8.71553 17.8183 8.71553H18.8561C18.9967 8.71553 19.1183 8.76688 19.221 8.86959C19.3237 8.97229 19.3751 9.09391 19.3751 9.23445ZM15.2237 5.0831V6.12094C15.2237 6.26148 15.1723 6.3831 15.0696 6.4858C14.9669 6.58851 14.8453 6.63986 14.7048 6.63986H13.6669C13.5264 6.63986 13.4048 6.58851 13.3021 6.4858C13.1994 6.3831 13.148 6.26148 13.148 6.12094V5.0831C13.148 4.94256 13.1994 4.82094 13.3021 4.71824C13.4048 4.61553 13.5264 4.56418 13.6669 4.56418H14.7048C14.8453 4.56418 14.9669 4.61553 15.0696 4.71824C15.1723 4.82094 15.2237 4.94256 15.2237 5.0831ZM19.3751 5.0831V6.12094C19.3751 6.26148 19.3237 6.3831 19.221 6.4858C19.1183 6.58851 18.9967 6.63986 18.8561 6.63986H17.8183C17.6778 6.63986 17.5561 6.58851 17.4534 6.4858C17.3507 6.3831 17.2994 6.26148 17.2994 6.12094V5.0831C17.2994 4.94256 17.3507 4.82094 17.4534 4.71824C17.5561 4.61553 17.6778 4.56418 17.8183 4.56418H18.8561C18.9967 4.56418 19.1183 4.61553 19.221 4.71824C19.3237 4.82094 19.3751 4.94256 19.3751 5.0831ZM15.2237 27.3966H21.4507V2.48851H2.76965V27.3966H8.99667V23.7642C8.99667 23.6236 9.04802 23.502 9.15073 23.3993C9.25343 23.2966 9.37505 23.2453 9.51559 23.2453H14.7048C14.8453 23.2453 14.9669 23.2966 15.0696 23.3993C15.1723 23.502 15.2237 23.6236 15.2237 23.7642V27.3966ZM23.5264 1.45067V28.4345C23.5264 28.7155 23.4237 28.9588 23.2183 29.1642C23.0129 29.3696 22.7696 29.4723 22.4886 29.4723H1.73181C1.45073 29.4723 1.20748 29.3696 1.00208 29.1642C0.796672 28.9588 0.69397 28.7155 0.69397 28.4345V1.45067C0.69397 1.16959 0.796672 0.926343 1.00208 0.720938C1.20748 0.515532 1.45073 0.41283 1.73181 0.41283H22.4886C22.7696 0.41283 23.0129 0.515532 23.2183 0.720938C23.4237 0.926343 23.5264 1.16959 23.5264 1.45067Z" fill="white"/>
</svg>
